<?xml version="1.0" encoding="UTF-8" standalone="no"?>
<!-- Created with Inkscape (http://www.inkscape.org/) -->

<svg
   width="1024"
   height="1024"
   viewBox="0 0 270.93333 270.93333"
   version="1.1"
   id="svg1"
   inkscape:version="1.4.1 (93de688d07, 2025-03-30)"
   sodipodi:docname="icon.svg"
   inkscape:export-filename="public/icon.svg"
   inkscape:export-xdpi="96"
   inkscape:export-ydpi="96"
   xmlns:inkscape="http://www.inkscape.org/namespaces/inkscape"
   xmlns:sodipodi="http://sodipodi.sourceforge.net/DTD/sodipodi-0.dtd"
   xmlns="http://www.w3.org/2000/svg"
   xmlns:svg="http://www.w3.org/2000/svg">
  <sodipodi:namedview
     id="namedview1"
     pagecolor="#000000"
     bordercolor="#000000"
     borderopacity="0.25"
     inkscape:showpageshadow="2"
     inkscape:pageopacity="0.0"
     inkscape:pagecheckerboard="0"
     inkscape:deskcolor="#d1d1d1"
     inkscape:document-units="mm"
     inkscape:export-bgcolor="#ffffff00"
     inkscape:zoom="0.5683642"
     inkscape:cx="396.75265"
     inkscape:cy="561.25984"
     inkscape:window-width="1440"
     inkscape:window-height="891"
     inkscape:window-x="0"
     inkscape:window-y="0"
     inkscape:window-maximized="1"
     inkscape:current-layer="layer1" />
  <defs
     id="defs1" />
  <g
     inkscape:label="Layer 1"
     inkscape:groupmode="layer"
     id="layer1">
    <path
       fill="currentColor"
       stroke="none"
       stroke-width="0"
       data-circle-animation-target="path"
       d="m 259.26615,136.02769 c 0.10628,17.28073 -2.79758,31.2972 -8.5101,47.01669 -6.5076,15.83694 -14.67599,27.96888 -26.18144,40.31015 -12.01875,12.02476 -24.37833,20.2777 -39.90921,27.14951 -15.6449,6.45442 -30.36477,9.40845 -47.41762,9.68316 -16.87659,-0.0409 -31.70132,-2.94514 -47.595821,-9.253 C 74.118844,244.4395 61.459091,236.05252 49.096496,224.17895 37.284186,212.25905 28.720019,199.58819 21.686533,183.89474 15.391736,168.42363 12.268041,153.29418 11.664366,136.02769 11.803825,119.41983 14.707661,104.05767 20.810969,87.79803 27.291528,72.597433 35.917757,59.359992 47.989853,46.769816 59.777215,35.24265 72.865794,26.260758 89.032248,19.625139 c 15.336392,-6.171013 30.783392,-9.426243 48.215532,-8.803498 16.67908,0.113243 31.89882,3.017295 47.40815,10.752702 15.63153,6.498848 28.12024,14.81497 38.99653,28.048676 12.26235,12.129189 20.16727,24.14075 24.87273,40.312069 6.92498,16.157352 9.3789,29.669752 10.74096,46.092602"
       id="path1"
       style="fill:#ffffff;fill-opacity:1" />
    <text
       xml:space="preserve"
       style="font-size:193.785px;text-align:start;writing-mode:lr-tb;direction:ltr;text-anchor:start;fill:#000000;fill-opacity:1;stroke-width:16.1487"
       x="37.992767"
       y="210.65533"
       id="text2"><tspan
         sodipodi:role="line"
         style="fill:#000000;fill-opacity:1;stroke-width:16.1487"
         x="37.992767"
         y="210.65533"
         id="tspan3">息</tspan></text>
  </g>
</svg>
